<svg width="128" height="128" viewBox="0 0 128 128" fill="none" xmlns="http://www.w3.org/2000/svg">
<rect width="128" height="128" fill="#2E44CB"/>
<path fill-rule="evenodd" clip-rule="evenodd" d="M51.8347 41.3555C50.8935 40.968 49.8556 40.6773 48.7207 40.4836C47.5858 40.2898 46.2157 40.1929 44.6102 40.1929C42.3404 40.1929 40.1122 40.6081 37.9255 41.4385C35.7388 42.269 33.8012 43.6253 32.1127 45.5075C30.4242 47.3897 29.0679 49.8532 28.0438 52.898C27.0196 55.9429 26.5075 59.6796 26.5075 64.1084C26.5075 68.0944 26.9642 71.582 27.8777 74.5715C28.7911 77.5609 30.0644 80.0521 31.6975 82.045C33.3306 84.038 35.2959 85.5327 37.5933 86.5292C39.8908 87.5257 42.4512 88.0239 45.2745 88.0239C46.7139 88.0239 48.0564 87.8993 49.302 87.6502C50.5476 87.4011 51.6963 87.0551 52.7481 86.6122V78.3082H58.8931V89.5186L58.9761 89.6847C57.3153 90.958 55.2116 92.0237 52.6651 92.8817C50.1185 93.7398 47.0184 94.1689 43.3646 94.1689C39.8769 94.1689 36.6522 93.5737 33.6905 92.3835C30.7287 91.1933 28.1683 89.3802 26.0093 86.9444C23.8502 84.5085 22.1756 81.3946 20.9854 77.6024C19.7951 73.8102 19.2 69.3123 19.2 64.1084C19.2 58.6831 19.8643 54.0745 21.193 50.2823C22.5216 46.4901 24.3208 43.39 26.5906 40.9818C28.8603 38.5737 31.5037 36.816 34.5209 35.7088C37.538 34.6016 40.7627 34.048 44.195 34.048C46.0773 34.048 47.7104 34.1172 49.0944 34.2556C50.4784 34.394 51.6963 34.5878 52.7481 34.8369C53.8 35.086 54.7272 35.4043 55.5299 35.7918C56.3327 36.1794 57.1215 36.6222 57.8966 37.1205H57.9796V50.2408H51.8347V41.3555ZM101.659 41.3555C100.717 40.968 99.6795 40.6773 98.5446 40.4836C97.4097 40.2898 96.0396 40.1929 94.4341 40.1929C92.1643 40.1929 89.9361 40.6081 87.7494 41.4385C85.5627 42.269 83.6251 43.6253 81.9366 45.5075C80.2481 47.3897 78.8918 49.8532 77.8677 52.898C76.8435 55.9429 76.3314 59.6796 76.3314 64.1084C76.3314 68.0944 76.7881 71.582 77.7016 74.5715C78.615 77.5609 79.8883 80.0521 81.5214 82.045C83.1545 84.038 85.1198 85.5327 87.4172 86.5292C89.7147 87.5257 92.2751 88.0239 95.0984 88.0239C96.5378 88.0239 97.8803 87.8993 99.1259 87.6502C100.371 87.4011 101.52 87.0551 102.572 86.6122V78.3082H108.717V89.5186L108.8 89.6847C107.139 90.958 105.036 92.0237 102.489 92.8817C99.9424 93.7398 96.8423 94.1689 93.1885 94.1689C89.7008 94.1689 86.4761 93.5737 83.5144 92.3835C80.5526 91.1933 77.9922 89.3802 75.8332 86.9444C73.6741 84.5085 71.9995 81.3946 70.8093 77.6024C69.619 73.8102 69.0239 69.3123 69.0239 64.1084C69.0239 58.6831 69.6882 54.0745 71.0169 50.2823C72.3455 46.4901 74.1447 43.39 76.4145 40.9818C78.6842 38.5737 81.3276 36.816 84.3448 35.7088C87.3619 34.6016 90.5866 34.048 94.0189 34.048C95.9012 34.048 97.5343 34.1172 98.9183 34.2556C100.302 34.394 101.52 34.5878 102.572 34.8369C103.624 35.086 104.551 35.4043 105.354 35.7918C106.157 36.1794 106.945 36.6222 107.72 37.1205H107.804V50.2408H101.659V41.3555Z" fill="white"/>
</svg>
